<?xml version="1.0" encoding="UTF-8" standalone="no"?>
<!-- Uploaded to: SVG Repo, www.svgrepo.com, Generator: SVG Repo Mixer Tools -->

<svg
   fill="#000000"
   height="800px"
   width="800px"
   version="1.1"
   viewBox="0 0 512 512"
   enable-background="new 0 0 512 512"
   id="svg4"
   sodipodi:docname="delete.svg"
   inkscape:version="1.2.2 (732a01da63, 2022-12-09)"
   xmlns:inkscape="http://www.inkscape.org/namespaces/inkscape"
   xmlns:sodipodi="http://sodipodi.sourceforge.net/DTD/sodipodi-0.dtd"
   xmlns="http://www.w3.org/2000/svg"
   xmlns:svg="http://www.w3.org/2000/svg">
  <defs
     id="defs8" />
  <sodipodi:namedview
     id="namedview6"
     pagecolor="#ffffff"
     bordercolor="#000000"
     borderopacity="0.25"
     inkscape:showpageshadow="2"
     inkscape:pageopacity="0.0"
     inkscape:pagecheckerboard="0"
     inkscape:deskcolor="#d1d1d1"
     showgrid="false"
     inkscape:zoom="1.2525"
     inkscape:cx="400"
     inkscape:cy="400.3992"
     inkscape:window-width="1718"
     inkscape:window-height="1360"
     inkscape:window-x="3633"
     inkscape:window-y="0"
     inkscape:window-maximized="0"
     inkscape:current-layer="svg4" />
  <path
     d="M256,0C114.844,0,0,114.844,0,256s114.844,256,256,256s256-114.844,256-256S397.156,0,256,0z M358.625,313.375  c12.5,12.492,12.5,32.758,0,45.25C352.383,364.875,344.188,368,336,368s-16.383-3.125-22.625-9.375L256,301.25l-57.375,57.375  C192.383,364.875,184.188,368,176,368s-16.383-3.125-22.625-9.375c-12.5-12.492-12.5-32.758,0-45.25L210.75,256l-57.375-57.375  c-12.5-12.492-12.5-32.758,0-45.25c12.484-12.5,32.766-12.5,45.25,0L256,210.75l57.375-57.375c12.484-12.5,32.766-12.5,45.25,0  c12.5,12.492,12.5,32.758,0,45.25L301.25,256L358.625,313.375z"
     id="path2"
     style="fill:#f5efde;fill-opacity:1" />
</svg>
